<?xml version="1.0" standalone="no"?>
<!DOCTYPE svg PUBLIC "-//W3C//DTD SVG 20010904//EN"
 "http://www.w3.org/TR/2001/REC-SVG-20010904/DTD/svg10.dtd">
<svg version="1.0" xmlns="http://www.w3.org/2000/svg"
 width="198.000000pt" height="198.000000pt" viewBox="0 0 198.000000 198.000000"
 preserveAspectRatio="xMidYMid meet">

<g transform="translate(0.000000,198.000000) scale(0.100000,-0.100000)"
fill="red" stroke="none">
<path d="M0 990 l0 -990 990 0 990 0 0 990 0 990 -990 0 -990 0 0 -990z m800
444 c68 -30 112 -75 142 -143 17 -37 22 -74 26 -191 4 -137 5 -143 17 -102 24
79 79 138 173 184 112 54 267 49 354 -14 15 -10 32 -17 37 -14 4 3 28 32 52
65 24 33 45 59 46 57 3 -2 -42 -284 -53 -341 l-7 -30 -16 42 c-59 151 -182
210 -307 148 -106 -53 -148 -171 -109 -303 30 -102 111 -161 218 -162 93 0
173 55 192 133 4 15 10 27 14 27 7 0 63 -262 57 -268 -2 -1 -14 14 -27 34 -13
21 -27 42 -30 47 -4 6 -19 1 -35 -10 -84 -59 -237 -76 -339 -39 -104 38 -190
122 -217 214 l-12 42 -113 0 -112 0 -3 63 -3 62 -97 3 -98 3 0 -66 0 -65 -111
0 -110 0 3 218 c3 202 5 221 26 267 55 119 162 179 309 171 50 -3 90 -13 133
-32z"/>
<path d="M579 1261 c-26 -27 -29 -36 -29 -95 l0 -66 100 0 100 0 0 51 c0 91
-39 139 -111 139 -20 0 -40 -10 -60 -29z"/>
</g>
</svg>
